<svg width="322" height="215" viewBox="0 0 322 215" fill="none" xmlns="http://www.w3.org/2000/svg">
<rect width="322" height="215" rx="16" fill="#222222"/>
<path d="M202.346 136.395C193.818 147.215 180.589 154.163 165.745 154.163C140.019 154.163 119.163 133.307 119.163 107.582C119.163 81.8561 140.019 60.9998 165.745 60.9998C180.975 60.9998 194.502 68.3139 203 79.6171" stroke="url(#paint0_radial_6689_10188)" stroke-width="16.361" stroke-linecap="round" stroke-linejoin="round"/>
<mask id="mask0_6689_10188" style="mask-type:luminance" maskUnits="userSpaceOnUse" x="148" y="90" width="35" height="35">
<path d="M165.515 124.313C174.754 124.313 182.243 116.823 182.243 107.584C182.243 98.3455 174.754 90.856 165.515 90.856C156.276 90.856 148.786 98.3455 148.786 107.584C148.786 116.823 156.276 124.313 165.515 124.313Z" fill="white"/>
</mask>
<g mask="url(#mask0_6689_10188)">
<mask id="mask1_6689_10188" style="mask-type:luminance" maskUnits="userSpaceOnUse" x="146" y="88" width="39" height="39">
<path d="M184.815 88.2832H146.212V126.887H184.815V88.2832Z" fill="white"/>
</mask>
<g mask="url(#mask1_6689_10188)">
<circle cx="165.753" cy="107.634" r="17.0972" fill="url(#paint1_radial_6689_10188)"/>
</g>
</g>
<path d="M202.183 136.499C193.655 147.318 180.426 154.267 165.582 154.267C139.856 154.267 119 133.411 119 107.685C119 96.9635 122.624 87.0861 128.713 79.2109" stroke="url(#paint2_radial_6689_10188)" stroke-width="16.361" stroke-linecap="round" stroke-linejoin="round"/>
<defs>
<radialGradient id="paint0_radial_6689_10188" cx="0" cy="0" r="1" gradientUnits="userSpaceOnUse" gradientTransform="translate(82.5152 17.6477) rotate(30.7627) scale(153.939 153.939)">
<stop offset="0.417464" stop-color="#FFA1A1"/>
<stop offset="1" stop-color="#4FCEDC" stop-opacity="0"/>
</radialGradient>
<radialGradient id="paint1_radial_6689_10188" cx="0" cy="0" r="1" gradientUnits="userSpaceOnUse" gradientTransform="translate(131.109 65.3405) rotate(45.4658) scale(117.4)">
<stop stop-color="#FF7B01"/>
<stop offset="1" stop-color="#FFE601"/>
</radialGradient>
<radialGradient id="paint2_radial_6689_10188" cx="0" cy="0" r="1" gradientUnits="userSpaceOnUse" gradientTransform="translate(210.745 166.123) rotate(-132.686) scale(126.089 126.089)">
<stop offset="0.21" stop-color="#FFD772"/>
<stop offset="1" stop-color="#FF7B01"/>
</radialGradient>
</defs>
</svg>
